# AST/ASF file generated using VICON BodyLanguage
# -----------------------------------------------
:version 1.10
:name VICON
:units
  mass 1.0
  length 0.45
  angle deg
:documentation
   .ast/.asf automatically generated from VICON data using
   VICON BodyBuilder and BodyLanguage model FoxedUp or BRILLIANT.MOD
:root
   order TX TY TZ RX RY RZ
   axis XYZ
   position 0 0 0  
   orientation 0 0 0 
:bonedata
  begin
     id 1 
     name lhipjoint
     direction 0.660183 -0.676772 0.325788 
     length 2.75133 
     axis 0 0 0  XYZ
  end
  begin
     id 2 
     name lfemur
     direction 0.34202 -0.939693 0  
     length 7.70317  
     axis 0 0 20  XYZ
    dof rx ry rz
    limits (-160.0 20.0)
           (-70.0 70.0)
           (-60.0 70.0)
  end
  begin
     id 3 
     name ltibia
     direction 0.342105 -0.939662 0   
     length 7.18701   
     axis 0 0 20   XYZ
    dof rx
    limits (-10.0 170.0)
  end
  begin
     id 4 
     name lfoot
     direction 0.14163 -0.389126 0.910232   
     length 2.41719   
     axis -90 7.62852e-016 20   XYZ
    dof rx rz
    limits (-45.0 90.0)
           (-70.0 20.0)
  end
  begin
     id 5 
     name ltoes
     direction 1.53533e-011 -4.21926e-011 1   
     length 1.18611   
     axis -90 7.62852e-016 20   XYZ
    dof rx
    limits (-90.0 20.0)
  end
  begin
     id 6 
     name rhipjoint
     direction -0.6658 -0.67229 0.323631   
     length 2.76968  
     axis 0 0 0  XYZ 
  end
  begin
     id 7 
     name rfemur
     direction -0.34202 -0.939693 0   
     length 7.92547   
     axis 0 0 -20   XYZ
    dof rx ry rz
    limits (-160.0 20.0)
           (-70.0 70.0)
           (-70.0 60.0)
  end
  begin
     id 8 
     name rtibia
     direction -0.342022 -0.939692 0   
     length 7.22641   
     axis 0 0 -20   XYZ
    dof rx
    limits (-10.0 170.0)
 end
 begin
     id 9 
     name rfoot
     direction -0.105675 -0.29034 0.951071   
     length 2.48149  
     axis -90 -7.62852e-016 -20   XYZ
    dof rx rz
    limits (-45.0 90.0)
           (-20.0 70.0)
  end
  begin
     id 10 
     name rtoes
     direction -1.5349e-011 -4.21859e-011 1   
     length 1.23343   
     axis -90 -7.62852e-016 -20   XYZ
    dof rx
    limits (-90.0 20.0)
  end
  begin
     id 11 
     name lowerback
     direction 0.0104173 0.993624 -0.112266   
     length 2.00527   
     axis 0 0 0   XYZ
    dof rx ry rz
    limits (-20.0 45.0)
           (-30.0 30.0)
           (-30.0 30.0)
  end
  begin
     id 12 
     name upperback
     direction 0.00733149 0.999856 -0.0152913   
     length 2.01385   
     axis 0 0 0   XYZ
    dof rx ry rz
    limits (-20.0 45.0)
           (-30.0 30.0)
           (-30.0 30.0)
  end
  begin
     id 13 
     name thorax
     direction 0.0026304 0.999318 0.036841   
     length 2.03734   
     axis 0 0 0   XYZ
    dof rx ry rz
    limits (-20.0 45.0)
           (-30.0 30.0)
           (-30.0 30.0)
  end
  begin
     id 14 
     name lowerneck
     direction 0.0293154 0.998757 0.0403082   
     length 1.65303   
     axis 0 0 0   XYZ
    dof rx ry rz
    limits (-20.0 45.0)
           (-30.0 30.0)
           (-30.0 30.0)
  end
  begin
     id 15 
     name upperneck
     direction -0.0376619 0.998184 -0.0470083   
     length 1.60926   
     axis 0 0 0   XYZ
    dof rx ry rz
    limits (-20.0 45.0)
           (-30.0 30.0)
           (-30.0 30.0)
  end
  begin
     id 16
     name head
     direction -0.0170133 0.999635 -0.0209778  
     length 1.73625  
     axis 0 0 0   XYZ
    dof rx ry rz
    limits (-20.0 45.0)
           (-30.0 30.0)
           (-30.0 30.0)
  end
  begin
     id 17 
     name lclavicle
     direction 0.919857 0.39181 -0.0186333  
     length 3.75313  
     axis 0 0 0   XYZ
    dof ry rz
    limits (-20.0 10.0)
           (0.0 20.0)
  end
  begin
     id 18 
     name lhumerus
     direction 1 -4.48988e-011 1.44029e-027   
     length 5.49313   
     axis 180 -30 -90   XYZ
    dof rx ry rz
    limits (-60.0 90.0)
           (-90.0 90.0)
           (-90.0 90.0)
  end
  begin
     id 19
     name lradius
     direction 1 -4.48924e-011 7.46281e-027   
     length 3.29037   
     axis 180 -30 -90   XYZ
    dof rx
    limits (-10.0 170.0)
  end
  begin
     id 20
     name lwrist
     direction 1 -4.48955e-011 2.19879e-026   
     length 1.64519   
     axis -1.34358e-014 90 90   XYZ
    dof ry
    limits (-180.0 0.0)
 end
  begin
     id 21 
     name lhand
     direction 1 -4.48978e-011 4.39747e-026   
     length 0.729656   
     axis -2.80598e-014 90 90   XYZ
    dof rx rz
    limits (-90.0 90.0)
           (-45.0 45.0)
  end
  begin
     id 22 
     name lfingers
     direction 1 -4.49071e-011 8.79411e-026   
     length 0.588268   
     axis -5.61193e-014 90 90   XYZ
    dof rx
    limits (0.0 90.0)
  end
  begin
     id 23
     name lthumb
     direction 0.707107 -6.34817e-011 0.707107   
     length 0.844638   
     axis -90 45 -9.86923e-015   XYZ
    dof rx rz
    limits (-45.0 45.0)
           (-45.0 45.0)
  end
  begin
     id 24 
     name rclavicle
     direction -0.919898 0.388279 0.0550233   
     length 3.7171  
     axis 0 0 0   XYZ 
    dof ry rz
    limits (-10.0 20.0)
           (-20.0 0.0)
  end
  begin
     id 25 
     name rhumerus
     direction -1 -4.48968e-011 9.98372e-028  
     length 5.23684   
     axis 180 30 90   XYZ
    dof rx ry rz
    limits (-90.0 60.0)
           (-90.0 90.0)
           (-90.0 90.0)
  end
  begin
     id 26 
     name rradius
     direction -1 -4.48956e-011 1.01023e-026   
     length 3.38251   
     axis 180 30 90   XYZ
    dof rx
    limits (-10.0 170.0)
  end
  begin
     id 27 
     name rwrist
     direction -1 -4.4892e-011 2.19886e-026   
     length 1.69126   
     axis -1.34358e-014 -90 -90   XYZ
    dof ry
    limits (-180.0 0.0)
  end
  begin
     id 28
     name rhand
     direction -1 -4.49024e-011 4.39727e-026   
     length 0.691454   
     axis -2.80598e-014 -90 -90   XYZ
    dof rx rz
    limits (-90.0 90.0)
           (-45.0 45.0)
  end
  begin
     id 29
     name rfingers
     direction -1 -4.49097e-011 8.79388e-026   
     length 0.557468   
     axis -5.61193e-014 -90 -90   XYZ
    dof rx
    limits (0.0 90.0)
  end
  begin
     id 30
     name rthumb
     direction -0.707107 -6.34938e-011 0.707107   
     length 0.800416   
     axis -90 -45 9.86923e-015   XYZ
    dof rx rz
    limits (-45.0 45.0)
           (-45.0 45.0)
  end
:hierarchy
  begin
    root lhipjoint rhipjoint lowerback
    lhipjoint lfemur
    lfemur ltibia
    ltibia lfoot
    lfoot ltoes
    rhipjoint rfemur
    rfemur rtibia
    rtibia rfoot
    rfoot rtoes
    lowerback upperback
    upperback thorax
    thorax lowerneck lclavicle rclavicle
    lowerneck upperneck
    upperneck head
    lclavicle lhumerus
    lhumerus lradius
    lradius lwrist
    lwrist lhand lthumb
    lhand lfingers
    rclavicle rhumerus
    rhumerus rradius
    rradius rwrist
    rwrist rhand rthumb
    rhand rfingers
  end

#!OML:ASF H:\BabyWalks\Project 1\Capture day 1\Session 1\baby.ASF
:FULLY-SPECIFIED
:DEGREES
278
root -16.5706 18.0073 17.7107 -147.329 87.39 -157.71
lowerback 17.9979 -0.994328 -1.38517
upperback 4.30894 -1.26956 0.606298
thorax -5.40072 -0.500117 1.70317
lowerneck -3.37054 -0.487243 5.34881
upperneck 0.0573228 -0.828391 -2.37985
head 0.555688 -0.428106 -1.66113
rclavicle 1.00386e-014 -4.17448e-015
rhumerus -51.6779 8.79889 -82.8469
rradius 43.8847
rwrist -2.81823
rhand -3.74929 -15.3833
rfingers 7.12502
rthumb 21.9947 -44.1528
lclavicle 1.00386e-014 -4.17448e-015
lhumerus -40.7152 -9.11663 77.4492
lradius 78.8446
lwrist 9.00278
lhand -19.1493 -0.977749
lfingers 7.12502
lthumb 7.16107 28.8811
rfemur -25.833 4.29963 21.5611
rtibia 20.9493
rfoot -8.48812 -8.74447
rtoes -0.511324
lfemur -6.04392 2.3222 -14.4615
ltibia 33.4736
lfoot -8.62758 -18.7244
ltoes -15.9816
279
root -16.3819 17.9662 17.7398 -158.305 86.9955 -168.375
lowerback 18.11 -1.01952 -1.28903
upperback 4.28803 -1.27078 0.794776
thorax -5.48052 -0.498877 1.85216
lowerneck -3.57568 -0.615925 5.62905
upperneck 0.277231 -1.01308 -3.20373
head 0.650913 -0.527769 -1.98557
rclavicle 2.26615e-014 8.94531e-016
rhumerus -51.9568 8.86644 -82.6174
rradius 44.1224
rwrist -3.11696
rhand -3.40908 -15.3645
rfingers 7.12502
rthumb 22.3213 -44.0952
lclavicle 2.26615e-014 8.94531e-016
lhumerus -41.1376 -8.84021 77.6405
lradius 78.282
lwrist 8.85058
lhand -19.0712 -0.537295
lfingers 7.12502
lthumb 7.23642 29.319
rfemur -25.597 3.86451 21.4974
rtibia 22.0594
rfoot -8.15151 -8.899
rtoes 0.673536
lfemur -6.31673 2.64514 -14.3868
ltibia 35.3203
lfoot -7.32734 -19.8454
ltoes -16.6018
280
root -16.1959 17.9246 17.7693 -166.519 86.5642 -176.229
lowerback 18.2623 -1.01715 -1.20427
upperback 4.2915 -1.23575 0.979557
thorax -5.55702 -0.479087 1.99633
lowerneck -3.68376 -0.737961 5.93142
upperneck 0.371072 -1.18235 -4.04621
head 0.688972 -0.620783 -2.32307
rclavicle 9.51682e-015 -1.51573e-014
rhumerus -52.1957 8.85317 -82.3462
rradius 44.3371
rwrist -3.40749
rhand -3.14266 -15.3533
rfingers 7.12502
rthumb 22.577 -44.0531
lclavicle 9.51682e-015 -1.51573e-014
lhumerus -41.5711 -8.50926 77.8331
lradius 77.5681
lwrist 8.538
lhand -18.9343 -0.00112453
lfingers 7.12502
lthumb 7.36861 29.8506
rfemur -25.3362 3.5349 21.4048
rtibia 23.414
rfoot -8.20611 -9.06192
rtoes 1.5528
lfemur -6.64399 2.90537 -14.3155
ltibia 37.3295
lfoot -6.06256 -20.7555
ltoes -17.0837
281
root -16.013 17.8833 17.799 -171.736 86.1399 -181.041
lowerback 18.4462 -0.988698 -1.06217
upperback 4.33063 -1.15169 1.1767
thorax -5.61536 -0.435277 2.11025
lowerneck -3.68051 -0.855784 6.30517
upperneck 0.293595 -1.34336 -4.94385
head 0.651381 -0.709761 -2.69454
rclavicle 1.11816e-014 -1.02374e-014
rhumerus -52.3546 8.75512 -82.0389
rradius 44.501
rwrist -3.70184
rhand -2.9676 -15.3627
rfingers 7.12502
rthumb 22.7451 -44.0419
lclavicle 1.11816e-014 -1.02374e-014
lhumerus -41.9887 -8.11119 78.0288
lradius 76.6989
lwrist 8.0892
lhand -18.755 0.59201
lfingers 7.12502
lthumb 7.54165 30.4376
rfemur -25.0167 3.32637 21.3708
rtibia 24.8923
rfoot -8.63567 -9.27154
rtoes 2.07494
lfemur -7.04026 3.10719 -14.1716
ltibia 39.5218
lfoot -4.95479 -21.415
ltoes -17.4425
282
root -15.8329 17.8422 17.8283 -173.887 85.7638 -182.751
lowerback 18.6514 -0.940719 -0.787826
upperback 4.40483 -1.01139 1.40197
thorax -5.65216 -0.364729 2.16584
lowerneck -3.53059 -0.978493 6.72488
upperneck 0.00986452 -1.50972 -5.84308
head 0.518711 -0.799114 -3.07747
rclavicle 1.19271e-014 2.3059e-014
rhumerus -52.4077 8.56322 -81.6974
rradius 44.5815
rwrist -3.96255
rhand -2.86771 -15.3967
rfingers 7.12502
rthumb 22.8409 -44.0642
lclavicle 1.19271e-014 2.3059e-014
lhumerus -42.4018 -7.64498 78.2246
lradius 75.6868
lwrist 7.5388
lhand -18.5852 1.22511
lfingers 7.12502
lthumb 7.70549 31.0647
rfemur -24.6193 3.22023 21.4906
rtibia 26.3744
rfoot -9.36643 -9.52749
rtoes 2.29805
lfemur -7.52271 3.26503 -13.8761
ltibia 41.9098
lfoot -4.08264 -21.7999
ltoes -17.5288
283
root -15.655 17.8004 17.8568 -173.095 85.4639 -181.503
lowerback 18.8564 -0.881447 -0.343813
upperback 4.51116 -0.816603 1.67214
thorax -5.65839 -0.268548 2.15925
lowerneck -3.30255 -1.0853 7.17951
upperneck -0.408696 -1.65808 -6.72583
head 0.326207 -0.87622 -3.46539
rclavicle -3.97569e-016 -2.70347e-014
rhumerus -52.329 8.30369 -81.3282
rradius 44.5408
rwrist -4.1578
rhand -2.86569 -15.4401
rfingers 7.12502
rthumb 22.8429 -44.1074
lclavicle -3.97569e-016 -2.70347e-014
lhumerus -42.8298 -7.10816 78.4187
lradius 74.5501
lwrist 6.93806
lhand -18.4645 1.91069
lfingers 7.12502
lthumb 7.82202 31.746
rfemur -24.1403 3.19818 21.8329
rtibia 27.7572
rfoot -10.3161 -9.81618
rtoes 2.27754
lfemur -8.10428 3.39486 -13.3778
ltibia 44.4846
lfoot -3.55521 -21.926
ltoes -17.4141
284
root -15.4783 17.758 17.8839 -169.852 85.2424 -177.831
lowerback 19.0153 -0.812356 0.251094
upperback 4.64178 -0.573604 1.98729
thorax -5.61581 -0.149514 2.10181
lowerneck -3.04528 -1.17211 7.63869
upperneck -0.903953 -1.78444 -7.54964
head 0.101525 -0.939004 -3.83919
rclavicle 2.06736e-014 3.02153e-014
rhumerus -52.0911 7.99597 -80.9331
rradius 44.3522
rwrist -4.25925
rhand -2.98219 -15.4898
rfingers 7.12502
rthumb 22.7311 -44.1708
lclavicle 2.06736e-014 3.02153e-014
lhumerus -43.269 -6.5129 78.6064
lradius 73.282
lwrist 6.33343
lhand -18.438 2.66391
lfingers 7.12502
lthumb 7.84762 32.4983
rfemur -23.614 3.23072 22.4011
rtibia 28.9875
rfoot -11.396 -10.1112
rtoes 1.96739
lfemur -8.81295 3.53764 -12.6871
ltibia 47.2132
lfoot -3.40713 -21.8025
ltoes -17.1077
285
root -15.3019 17.7156 17.9093 -164.936 85.0766 -172.557
lowerback 19.0957 -0.730729 0.938698
upperback 4.77911 -0.294237 2.33032
thorax -5.52365 -0.0126764 2.01128
lowerneck -2.78689 -1.24284 8.06837
upperneck -1.41994 -1.89281 -8.27236
head -0.131669 -0.990072 -4.17744
rclavicle -1.05356e-014 1.03368e-014
rhumerus -51.6927 7.66446 -80.5145
rradius 44.0108
rwrist -4.2584
rhand -3.19991 -15.566
rfingers 7.12502
rthumb 22.5221 -44.2724
lclavicle -1.05356e-014 1.03368e-014
lhumerus -43.7342 -5.88233 78.7811
lradius 71.8917
lwrist 5.75405
lhand -18.5241 3.50029
lfingers 7.12502
lthumb 7.76454 33.3377
rfemur -23.0782 3.29587 23.1331
rtibia 30.0303
rfoot -12.4584 -10.3751
rtoes 1.55201
lfemur -9.66375 3.71128 -11.8756
ltibia 50.0244
lfoot -3.62504 -21.4353
ltoes -16.6473
286
root -15.1254 17.6708 17.9327 -159.137 84.938 -166.493
lowerback 19.0884 -0.634788 1.6407
upperback 4.90485 0.00388481 2.68453
thorax -5.39453 0.13409 1.91948
lowerneck -2.56264 -1.29739 8.4509
upperneck -1.88578 -1.98111 -8.88864
head -0.342713 -1.02981 -4.47382
rclavicle -5.56597e-015 1.51076e-014
rhumerus -51.1533 7.31569 -80.0696
rradius 43.5236
rwrist -4.09379
rhand -3.52395 -15.6781
rfingers 7.12502
rthumb 22.211 -44.422
lclavicle -5.56597e-015 1.51076e-014
lhumerus -44.2359 -5.24572 78.9424
lradius 70.3611
lwrist 5.21137
lhand -18.7325 4.43205
lfingers 7.12502
lthumb 7.56335 34.2768
rfemur -22.5687 3.36986 23.9505
rtibia 30.8874
rfoot -13.4304 -10.5255
rtoes 1.14964
lfemur -10.6442 3.91789 -11.0275
ltibia 52.8318
lfoot -4.16682 -20.8307
ltoes -16.0962
287
root -14.9489 17.628 17.9549 -153.171 84.8141 -160.368
lowerback 19.0049 -0.522471 2.28854
upperback 5.00274 0.306126 3.02932
thorax -5.25164 0.283673 1.84803
lowerneck -2.44914 -1.32559 8.72826
upperneck -2.22767 -2.04445 -9.73668
head -0.442615 -1.05254 -4.34876
rclavicle -6.75868e-015 1.19271e-014
rhumerus -50.4963 6.94773 -79.597
rradius 42.9222
rwrist -3.73298
rhand -3.97767 -15.8208
rfingers 7.12502
rthumb 21.7754 -44.6159
lclavicle -6.75868e-015 1.19271e-014
lhumerus -44.7711 -4.62557 79.0828
lradius 68.6815
lwrist 4.68165
lhand -19.0341 5.41331
lfingers 7.12502
lthumb 7.27224 35.2683
rfemur -22.0952 3.43996 24.7794
rtibia 31.572
rfoot -14.307 -10.6631
rtoes 0.650035
lfemur -11.7454 4.17188 -10.2253
ltibia 55.5391
lfoot -4.96487 -20.026
ltoes -15.524
288
root -14.7717 17.5914 17.9762 -147.932 84.7221 -155.061
lowerback 18.8617 -0.39008 2.80429
upperback 5.07093 0.599343 3.33744
thorax -5.10652 0.429396 1.81582
lowerneck -2.36775 -1.33736 8.99833
upperneck -2.4336 -2.07451 -10.189
head -0.525309 -1.06335 -4.53119
rclavicle 1.47101e-014 3.18055e-014
rhumerus -49.7489 6.52722 -79.0921
rradius 42.2483
rwrist -3.13093
rhand -4.526 -16.0462
rfingers 7.12502
rthumb 21.2488 -44.9015
lclavicle 1.47101e-014 3.18055e-014
lhumerus -45.3215 -4.05167 79.2028
lradius 66.8326
lwrist 4.12478
lhand -19.3889 6.35532
lfingers 7.12502
lthumb 6.92973 36.2219
rfemur -21.6384 3.50469 25.5157
rtibia 32.1098
rfoot -15.1377 -10.7464
rtoes 0.195468
lfemur -12.9279 4.45646 -9.57881
ltibia 58.0594
lfoot -5.93296 -19.0404
ltoes -14.9331
